<?xml version="1.0" encoding="UTF-8"?>
<svg version="1.1" viewBox="0 0 1000 227" xmlns="http://www.w3.org/2000/svg">
<g transform="translate(-.60606 .43633)">
<svg width="1e3" height="227" data-background-color="#ffffff" viewBox="0 0 396 90" xmlns="http://www.w3.org/2000/svg" xmlns:xlink="http://www.w3.org/1999/xlink">
<g transform="translate(.24 -.173)">
<svg width="395.52" height="90.346" viewBox="0 0 395.52 90.34599213163688">
<svg width="395.52" height="90.346" viewBox="0 0 395.52 90.34599213163688">
<svg width="395.52" height="90.346" viewBox="0 0 395.52 90.34599213163688">
<svg width="395.52" height="90.346" viewBox="0 0 589.1706108169282 134.58030787079764">
<g transform="translate(193.65 18.6)">
<svg width="395.52" height="97.381" viewBox="0 0 395.52 97.38083058668425">
<svg width="395.52" height="97.381" viewBox="0 0 395.52 97.38083058668425">
<svg width="395.52" height="97.381" viewBox="0 0 395.52 97.38083058668425">
<g>
<svg width="395.52" height="97.381" data-palette-color="#ffffff" viewBox="2.299999952316284 -37.099998474121094 151.69000244140625 37.349998474121094">
<path class="undefined-text-0" d="m25.4-37.1h3.55v37.1h-3.4v-5.2q-1.6 2.65-4.22 4.05-2.63 1.4-5.93 1.4-3.7 0-6.7-1.7t-4.7-4.75-1.7-6.95 1.7-6.95 4.7-4.73q3-1.67 6.7-1.67 3.2 0 5.78 1.32 2.57 1.33 4.22 3.88v-15.8zm-9.7 34.2q2.75 0 4.98-1.27 2.22-1.28 3.5-3.63 1.27-2.35 1.27-5.35t-1.27-5.35q-1.28-2.35-3.5-3.63-2.23-1.27-4.98-1.27-2.8 0-5.02 1.27-2.23 1.28-3.5 3.63-1.28 2.35-1.28 5.35t1.28 5.35q1.27 2.35 3.5 3.63 2.22 1.27 5.02 1.27zm43.3-23.4h3.55v26.3h-3.4v-4.8q-1.4 2.4-3.85 3.73-2.45 1.32-5.6 1.32-5.15 0-8.13-2.88-2.97-2.87-2.97-8.42v-15.25h3.55v14.9q0 4.15 2.05 6.3t5.85 2.15q4.15 0 6.55-2.53 2.4-2.52 2.4-7.02v-13.8zm20.55 26.55q-3.21 0-6.13-0.93-2.92-0.92-4.58-2.32l1.61-2.8q1.64 1.3 4.14 2.12 2.5 0.83 5.21 0.83 3.6 0 5.32-1.13 1.72-1.12 1.72-3.17 0-1.45-0.94-2.28-0.95-0.82-2.4-1.25-1.45-0.42-3.85-0.82-3.2-0.6-5.15-1.23-1.95-0.62-3.33-2.12-1.37-1.5-1.37-4.15 0-3.3 2.75-5.4t7.65-2.1q2.55 0 5.1 0.67 2.54 0.68 4.2 1.78l-1.55 2.85q-3.25-2.25-7.75-2.25-3.4 0-5.13 1.2t-1.73 3.15q0 1.5 0.98 2.4t2.43 1.32q1.45 0.43 4 0.88 3.15 0.6 5.05 1.2t3.25 2.05 1.35 4q0 3.45-2.88 5.47-2.87 2.03-7.97 2.03zm29.09-4.4 1.25 2.55q-1 0.9-2.45 1.37-1.45 0.48-3.05 0.48-3.7 0-5.7-2t-2-5.65v-24.65h3.55v5.75h7.95v3h-7.95v15.7q0 2.35 1.15 3.57 1.15 1.23 3.35 1.23 2.4 0 3.9-1.35zm7.7 4.15v-26.3h3.55v26.3h-3.55zm1.8-32.05q-1.1 0-1.85-0.75t-0.75-1.8q0-1 0.75-1.75t1.85-0.75 1.85 0.72q0.75 0.73 0.75 1.73 0 1.1-0.75 1.85t-1.85 0.75zm25.05 5.55q4.95 0 7.87 2.87 2.93 2.88 2.93 8.38v15.25h-3.55v-14.9q0-4.1-2.05-6.25t-5.85-2.15q-4.25 0-6.73 2.52-2.47 2.53-2.47 6.98v13.8h-3.55v-26.3h3.4v4.85q1.45-2.4 4.02-3.73 2.58-1.32 5.98-1.32z" fill="#fff" data-fill-palette-color="primary"/>
</svg>
</g>
</svg>
</svg>
</svg>
</g>
<svg width="179.44" height="134.58" viewBox="0 0 179.44041049439684 134.58030787079764">
<svg class="icon-icon-0" width="179.44" height="134.58" data-container-transform="translate(0 2)" data-fill-palette-color="accent" data-icon="code" version="1.1" viewBox="-1.4901161193847656e-7 2 16 12" xmlns="http://www.w3.org/2000/svg">
<path transform="translate(0 2)" d="m7.969 0-1.969 11.844-0.031 0.156h2.063l1.969-11.844 0.031-0.156h-2.063zm-2.969 1.813-0.531 0.344-4 2.5-0.469 0.281v2.126l0.469 0.281 4 2.5 0.531 0.344v-2.375l-2.906-1.813 2.906-1.813v-2.375zm6 0v2.375l2.906 1.813-2.906 1.813v2.375l0.531-0.344 4-2.5 0.469-0.281v-2.126l-0.469-0.281-4-2.5-0.531-0.344z" fill="#859aeb" data-fill-palette-color="accent"/>
</svg>
</svg>
</svg>
</svg>
</svg>
</svg>
<rect width="395.52" height="90.346" fill="none" visibility="hidden"/>
</g>
</svg>
</g>
</svg>
